{
  "accessors": [
    {
      "bufferView": 2,
      "componentType": 5126,
      "count": 1123,
      "max": [
        0.06572472304105759,
        0.11233466118574142,
        0.07906895875930786
      ],
      "min": [
        -0.04575585946440697,
        -0.08912818133831024,
        -0.07906895875930786
      ],
      "type": "VEC3"
    },
    {
      "bufferView": 2,
      "byteOffset": 13476,
      "componentType": 5126,
      "count": 1123,
      "max": [
        0.9999238848686218,
        0.9979567527770996,
        0.9912487864494324
      ],
      "min": [
        -0.5708116888999939,
        -0.999994158744812,
        -0.9912487864494324
      ],
      "type": "VEC3"
    },
    {
      "bufferView": 3,
      "componentType": 5126,
      "count": 1123,
      "max": [
        0.9902156591415405,
        0.5708117485046387,
        0.7821205258369446,
        1.0
      ],
      "min": [
        -0.9994542598724365,
        -0.3619251847267151,
        -1.0,
        1.0
      ],
      "type": "VEC4"
    },
    {
      "bufferView": 1,
      "componentType": 5126,
      "count": 1123,
      "max": [
        0.9977073073387146,
        0.9972025156021118
      ],
      "min": [
        0.002292197197675705,
        0.002291375771164894
      ],
      "type": "VEC2"
    },
    {
      "bufferView": 1,
      "byteOffset": 8984,
      "componentType": 5126,
      "count": 1123,
      "max": [
        0.9977073073387146,
        0.9972025156021118
      ],
      "min": [
        0.002292197197675705,
        0.002291375771164894
      ],
      "type": "VEC2"
    },
    {
      "bufferView": 1,
      "byteOffset": 17968,
      "componentType": 5126,
      "count": 1123,
      "max": [
        0.9977073073387146,
        0.9972025156021118
      ],
      "min": [
        0.002292197197675705,
        0.002291375771164894
      ],
      "type": "VEC2"
    },
    {
      "bufferView": 1,
      "byteOffset": 26952,
      "componentType": 5126,
      "count": 1123,
      "max": [
        0.9977073073387146,
        0.9972025156021118
      ],
      "min": [
        0.002292197197675705,
        0.002291375771164894
      ],
      "type": "VEC2"
    },
    {
      "bufferView": 0,
      "componentType": 5125,
      "count": 4830,
      "type": "SCALAR"
    }
  ],
  "asset": {
    "extras": {
      "author": "pixelAlp (https://sketchfab.com/pixelAlp)",
      "license": "CC-BY-4.0 (http://creativecommons.org/licenses/by/4.0/)",
      "source": "https://sketchfab.com/3d-models/v-for-vendetta-anonymous-mask-e8a690b21b864e49aab97fb773c8b39a",
      "title": "V for Vendetta - Anonymous Mask"
    },
    "generator": "Sketchfab-15.26.0",
    "version": "2.0"
  },
  "bufferViews": [
    {
      "buffer": 0,
      "byteLength": 19320,
      "name": "floatBufferViews",
      "target": 34963
    },
    {
      "buffer": 0,
      "byteLength": 35936,
      "byteOffset": 19320,
      "byteStride": 8,
      "name": "floatBufferViews",
      "target": 34962
    },
    {
      "buffer": 0,
      "byteLength": 26952,
      "byteOffset": 55256,
      "byteStride": 12,
      "name": "floatBufferViews",
      "target": 34962
    },
    {
      "buffer": 0,
      "byteLength": 17968,
      "byteOffset": 82208,
      "byteStride": 16,
      "name": "floatBufferViews",
      "target": 34962
    }
  ],
  "buffers": [
    {
      "byteLength": 100176,
      "uri": "scene.bin"
    }
  ],
  "images": [
    {
      "uri": "textures/colorcheck_baseColor.jpeg"
    },
    {
      "uri": "textures/colorcheck_metallicRoughness.png"
    },
    {
      "uri": "textures/colorcheck_normal.png"
    }
  ],
  "materials": [
    {
      "doubleSided": true,
      "name": "colorcheck",
      "normalTexture": {
        "index": 2
      },
      "pbrMetallicRoughness": {
        "baseColorTexture": {
          "index": 0
        },
        "metallicFactor": 0.0,
        "metallicRoughnessTexture": {
          "index": 1
        }
      }
    }
  ],
  "meshes": [
    {
      "name": "Object_0",
      "primitives": [
        {
          "attributes": {
            "NORMAL": 1,
            "POSITION": 0,
            "TANGENT": 2,
            "TEXCOORD_0": 3,
            "TEXCOORD_1": 4,
            "TEXCOORD_2": 5,
            "TEXCOORD_3": 6
          },
          "indices": 7,
          "material": 0,
          "mode": 4
        }
      ]
    }
  ],
  "nodes": [
    {
      "children": [
        1
      ],
      "matrix": [
        1.0,
        0.0,
        0.0,
        0.0,
        0.0,
        2.220446049250313e-16,
        -1.0,
        0.0,
        0.0,
        1.0,
        2.220446049250313e-16,
        0.0,
        0.0,
        0.0,
        0.0,
        1.0
      ],
      "name": "Sketchfab_model"
    },
    {
      "children": [
        2
      ],
      "name": "root"
    },
    {
      "children": [
        3
      ],
      "matrix": [
        1.0,
        0.0,
        0.0,
        0.0,
        0.0,
        2.220446049250313e-16,
        1.0,
        0.0,
        0.0,
        -1.0,
        2.220446049250313e-16,
        0.0,
        0.0,
        0.0,
        0.0,
        1.0
      ],
      "name": "GLTF_SceneRootNode"
    },
    {
      "children": [
        4
      ],
      "name": "vendetta_mask_low_0"
    },
    {
      "mesh": 0,
      "name": "Object_4"
    }
  ],
  "samplers": [
    {
      "magFilter": 9729,
      "minFilter": 9987,
      "wrapS": 10497,
      "wrapT": 10497
    }
  ],
  "scene": 0,
  "scenes": [
    {
      "name": "Sketchfab_Scene",
      "nodes": [
        0
      ]
    }
  ],
  "textures": [
    {
      "sampler": 0,
      "source": 0
    },
    {
      "sampler": 0,
      "source": 1
    },
    {
      "sampler": 0,
      "source": 2
    }
  ]
}
